<svg viewBox="0 0 321 123" fill="none" xmlns="http://www.w3.org/2000/svg">
<path fill-rule="evenodd" clip-rule="evenodd" d="M57.3553 72.1674C43.7272 72.1674 38.5696 77.2238 34.3913 79.2719C32.4195 80.2384 30.3903 80.5038 28.8019 78.4717C27.2136 76.4397 25.7965 75.4766 26.6356 73.91C27.4748 72.3433 40.734 62.997 57.3553 62.9971C67.207 62.9971 74.2281 64.9628 79.5919 67.3661C84.4186 69.5286 87.9085 72.0937 88.9103 73.91C89.9121 75.7262 88.4094 76.2254 86.4058 78.4587C84.4022 80.692 81.6473 79.2205 81.1046 78.6024C75.386 74.4092 66.113 72.1674 57.3553 72.1674Z" fill="#312E81"/>
<path fill-rule="evenodd" clip-rule="evenodd" d="M57.6503 86.2178C53.1343 86.2178 48.5876 87.9568 45.4672 90.0092C44.4159 90.7008 41.4894 92.2264 39.901 90.1944C38.3127 88.1624 36.1735 86.7294 38.2125 85.1465C41.302 82.7481 47.618 78.8867 57.6504 78.8867C63.4695 78.8867 67.7206 79.9353 71.0357 81.4206C74.1997 82.8382 76.0152 84.2211 77.1263 84.9821C79.2564 86.4409 77.3896 87.9568 75.3273 89.9698C73.8634 92.0926 71.0357 90.6622 70.3223 90.1737C66.5709 87.6045 62.1663 86.2178 57.6503 86.2178Z" fill="#312E81"/>
<path d="M64.1156 101.934C60.1084 105.677 60.5348 105.677 57.3534 105.677C54.1721 105.677 54.3376 104.441 51.5931 101.934C48.5876 99.1881 48.5876 99.1881 48.5876 97.9402C49.6407 96.5743 52.3444 94.1963 57.3534 94.1963C62.8634 94.1963 65.5672 96.5743 66.6202 97.9402C67.3663 98.908 66.6202 99.5937 64.1156 101.934Z" fill="#312E81"/>
<path fill-rule="evenodd" clip-rule="evenodd" d="M57.3497 57.756C38.9297 57.756 30.9737 64.1209 25.0037 68.7555C22.9647 70.3384 19.6073 68.8115 18.0189 66.7795C15.0271 62.952 14.7922 62.8153 16.8313 61.2324C23.5445 56.0209 35.9365 47.2734 57.3497 47.2734C70.1341 47.2735 79.1698 50.0674 86.0235 53.1382C90.4951 55.1417 95.6725 57.756 99.1788 61.5001C100.033 62.4125 100.181 63.3796 97.4257 66.492C95.4221 68.7555 93.2094 69.4699 91.6653 68.7383C81.6236 61.8611 69.5652 57.7561 57.3497 57.756Z" fill="#312E81"/>
<path fill-rule="evenodd" clip-rule="evenodd" d="M57.8275 43.5295C34.9213 43.5295 19.7924 54.0831 13.7749 58.7546C11.7358 60.3375 10.4457 57.9773 8.85737 55.9452C6.66795 52.2652 7.01264 51.9066 7.66976 51.3965C14.3355 46.222 31.8538 32.3506 57.8275 32.3506C76.6581 32.3506 94.7693 39.2531 108.743 51.7312C108.743 51.7312 108.908 53.5978 107.444 55.7206C105.981 57.8435 104.565 60.2135 102.435 58.7546C89.0147 49.5638 74.4066 43.5295 57.8275 43.5295Z" fill="#312E81"/>
<path fill-rule="evenodd" clip-rule="evenodd" d="M66.9912 26.0405C67.4161 23.4997 69.8273 21.7833 72.3769 22.2068C85.5446 24.3938 97.7248 29.183 109.317 38.1513C111.359 39.7308 111.729 42.6607 110.144 44.6954C108.559 46.73 105.619 47.099 103.578 45.5195C93.3301 37.5917 82.6303 33.3663 70.8381 31.4077C68.2886 30.9842 66.5662 28.5812 66.9912 26.0405Z" fill="#312E81"/>
<path d="M66.4075 25.095C69.3195 22.6075 70.7408 22.5039 70.8274 22.5039L72.1274 31.3135L63.5475 30.2771C63.1141 29.9316 63.4955 27.5824 66.4075 25.095Z" fill="#312E81"/>
<path fill-rule="evenodd" clip-rule="evenodd" d="M66.2383 24.8986C69.1728 22.3919 70.6526 22.2451 70.8275 22.2451C70.9565 22.2451 71.0659 22.3394 71.0847 22.4665L72.3847 31.2761C72.3965 31.3561 72.3702 31.4369 72.3136 31.4947C72.257 31.5525 72.1766 31.5808 72.0962 31.5711L63.5162 30.5346C63.4682 30.5288 63.4228 30.5098 63.3851 30.4797C63.2691 30.3873 63.2068 30.2514 63.1741 30.1198C63.1405 29.9844 63.1313 29.8265 63.1426 29.6547C63.1653 29.3105 63.2731 28.8776 63.484 28.3874C63.907 27.4046 64.7565 26.1643 66.2383 24.8986ZM70.6086 22.8018C70.1188 22.9195 68.7994 23.3934 66.5767 25.292C65.1465 26.5137 64.3493 27.6917 63.9619 28.5917C63.7677 29.043 63.6794 29.4176 63.6615 29.6888C63.6525 29.8247 63.6618 29.9264 63.6789 29.9954C63.6827 30.0106 63.6866 30.0233 63.6903 30.0337L71.8207 31.0158L70.6086 22.8018Z" fill="#312E81"/>
<path d="M110.971 42.6081C110.971 38.6218 109.142 38.7803 109.08 38.7203L101.482 43.6366L108.894 49.3515C109.447 49.4032 110.971 46.8602 110.971 42.6081Z" fill="#312E81"/>
<path fill-rule="evenodd" clip-rule="evenodd" d="M109.17 38.4776C109.174 38.4783 109.179 38.479 109.185 38.4799C109.194 38.4813 109.205 38.4831 109.221 38.4858C109.283 38.496 109.373 38.5126 109.479 38.5455C109.693 38.6118 109.966 38.7418 110.233 39.0095C110.767 39.5448 111.231 40.5826 111.231 42.6085C111.231 44.7645 110.845 46.4951 110.383 47.6875C110.152 48.2826 109.899 48.7506 109.661 49.072C109.543 49.232 109.421 49.3638 109.301 49.4563C109.189 49.5428 109.038 49.6256 108.87 49.6099C108.821 49.6053 108.774 49.5869 108.735 49.5568L101.323 43.8419C101.256 43.7905 101.219 43.7102 101.222 43.6263C101.226 43.5424 101.27 43.4654 101.34 43.4197L108.938 38.5034C109.009 38.4577 109.095 38.45 109.17 38.4776ZM109.865 39.3749C110.261 39.772 110.711 40.648 110.711 42.6085C110.711 44.7046 110.336 46.3715 109.898 47.5007C109.678 48.0665 109.446 48.4902 109.243 48.764C109.141 48.9016 109.052 48.9932 108.983 49.0464C108.971 49.0555 108.961 49.0628 108.952 49.0688L101.931 43.6555L109.131 38.9963C109.133 38.9966 109.135 38.9968 109.137 38.9971C109.187 39.0053 109.25 39.0173 109.325 39.0403C109.471 39.0857 109.667 39.1765 109.865 39.3749Z" fill="#312E81"/>
<path d="M93.4474 26.289C101.307 29.683 105.74 33.3989 108.756 35.6845C109.366 36.1459 110.155 35.7721 110.043 35.0178C109.475 31.1973 105.979 23.8063 96.7702 20.1001C87.7637 16.4753 79.6947 17.8692 75.7457 19.7336C74.9533 20.1077 75.1849 21.1013 76.0472 21.2595C80.3318 22.0457 86.8792 23.4524 93.4474 26.289Z" fill="#312E81"/>
<path fill-rule="evenodd" clip-rule="evenodd" d="M107.456 35.3424C107.801 35.6074 108.129 35.8595 108.442 36.0967C108.89 36.436 109.451 36.4967 109.904 36.2696C110.373 36.0346 110.644 35.5297 110.557 34.9415C109.965 30.9587 106.362 23.4013 96.9649 19.6192C87.8194 15.9386 79.5991 17.3405 75.523 19.2649C74.9202 19.5496 74.6484 20.1231 74.7671 20.6841C74.881 21.2226 75.3332 21.6551 75.953 21.7688C80.224 22.5525 86.7261 23.9508 93.2406 26.7641C100.226 29.7808 104.473 33.0478 107.456 35.3424ZM107.773 34.9316C104.787 32.634 100.494 29.3319 93.4474 26.2886C86.8791 23.4521 80.3317 22.0453 76.0471 21.2592C75.1848 21.101 74.9533 20.1073 75.7456 19.7333C79.6946 17.8688 87.7637 16.475 96.7702 20.0998C105.979 23.8059 109.475 31.197 110.043 35.0174C110.155 35.7717 109.365 36.1456 108.756 35.6841C108.445 35.4479 108.118 35.1964 107.773 34.9316Z" fill="#312E81"/>
<path fill-rule="evenodd" clip-rule="evenodd" d="M48.0089 26.0405C47.5839 23.4997 45.1727 21.7833 42.6232 22.2068C29.4554 24.3938 17.2753 29.183 5.68277 38.1513C3.64108 39.7308 3.27082 42.6607 4.85579 44.6954C6.44075 46.73 9.38073 47.099 11.4224 45.5195C21.6699 37.5917 32.3697 33.3663 44.1619 31.4077C46.7115 30.9842 48.4338 28.5812 48.0089 26.0405Z" fill="#312E81"/>
<path d="M48.5925 25.095C45.6805 22.6075 44.2592 22.5039 44.1726 22.5039L42.8726 31.3135L51.4525 30.2771C51.8859 29.9316 51.5045 27.5824 48.5925 25.095Z" fill="#312E81"/>
<path fill-rule="evenodd" clip-rule="evenodd" d="M48.7618 24.8986C45.8273 22.3919 44.3474 22.2451 44.1726 22.2451C44.0436 22.2451 43.9341 22.3394 43.9154 22.4665L42.6154 31.2761C42.6036 31.3561 42.6299 31.4369 42.6864 31.4947C42.743 31.5525 42.8234 31.5808 42.9039 31.5711L51.4839 30.5346C51.5318 30.5288 51.5773 30.5098 51.615 30.4797C51.7309 30.3873 51.7933 30.2514 51.8259 30.1198C51.8595 29.9844 51.8688 29.8265 51.8575 29.6547C51.8347 29.3105 51.727 28.8776 51.516 28.3874C51.093 27.4046 50.2436 26.1643 48.7618 24.8986ZM44.3915 22.8018C44.8813 22.9195 46.2007 23.3934 48.4234 25.292C49.8536 26.5137 50.6508 27.6917 51.0381 28.5917C51.2323 29.043 51.3207 29.4176 51.3386 29.6888C51.3476 29.8247 51.3383 29.9264 51.3211 29.9954C51.3174 30.0106 51.3135 30.0233 51.3097 30.0337L43.1794 31.0158L44.3915 22.8018Z" fill="#312E81"/>
<path d="M4.02857 42.6081C4.02858 38.6218 5.85777 38.7803 5.9201 38.7203L13.518 43.6366L6.10562 49.3515C5.55311 49.4032 4.02857 46.8602 4.02857 42.6081Z" fill="#312E81"/>
<path fill-rule="evenodd" clip-rule="evenodd" d="M5.82997 38.4776C5.82573 38.4783 5.82106 38.479 5.81544 38.4799C5.8064 38.4813 5.79489 38.4831 5.77863 38.4858C5.71673 38.496 5.62716 38.5126 5.52103 38.5455C5.30713 38.6118 5.03368 38.7418 4.76658 39.0095C4.23258 39.5448 3.76857 40.5826 3.76857 42.6085C3.76857 44.7645 4.15493 46.4951 4.61739 47.6875C4.84815 48.2826 5.10062 48.7506 5.33888 49.072C5.45749 49.232 5.57859 49.3638 5.69866 49.4563C5.81082 49.5428 5.9618 49.6256 6.12991 49.6099C6.17898 49.6053 6.22573 49.5869 6.26471 49.5568L13.6771 43.8419C13.7438 43.7905 13.7813 43.7102 13.7778 43.6263C13.7743 43.5424 13.7303 43.4654 13.6596 43.4197L6.06167 38.5034C5.99113 38.4577 5.90511 38.45 5.82997 38.4776ZM5.13533 39.3749C4.73915 39.772 4.28857 40.648 4.28857 42.6085C4.28857 44.7046 4.66447 46.3715 5.10242 47.5007C5.32185 48.0665 5.55412 48.4902 5.7571 48.764C5.85911 48.9016 5.94776 48.9932 6.01681 49.0464C6.02857 49.0555 6.03893 49.0628 6.04795 49.0688L13.0692 43.6555L5.86853 38.9963C5.86668 38.9966 5.86489 38.9968 5.8632 38.9971C5.81314 39.0053 5.74958 39.0173 5.67546 39.0403C5.52886 39.0857 5.33332 39.1765 5.13533 39.3749Z" fill="#312E81"/>
<path d="M21.5526 26.289C13.6935 29.683 9.26041 33.3989 6.24359 35.6845C5.63447 36.1459 4.84515 35.7721 4.9573 35.0178C5.52535 31.1973 9.02093 23.8063 18.2298 20.1001C27.2363 16.4753 35.3053 17.8692 39.2543 19.7336C40.0467 20.1077 39.8151 21.1013 38.9528 21.2595C34.6682 22.0457 28.1208 23.4524 21.5526 26.289Z" fill="#312E81"/>
<path fill-rule="evenodd" clip-rule="evenodd" d="M7.54369 35.3424C7.19914 35.6074 6.87145 35.8595 6.55836 36.0967C6.11044 36.436 5.54925 36.4967 5.09636 36.2696C4.62751 36.0346 4.35553 35.5297 4.443 34.9415C5.03519 30.9587 8.63777 23.4013 18.0351 19.6192C27.1806 15.9386 35.4009 17.3405 39.477 19.2649C40.0799 19.5496 40.3516 20.1231 40.2329 20.6841C40.119 21.2226 39.6668 21.6551 39.0471 21.7688C34.776 22.5525 28.2739 23.9508 21.7594 26.7641C14.7739 29.7808 10.5267 33.0478 7.54369 35.3424ZM7.22657 34.9316C10.2133 32.634 14.5057 29.3319 21.5526 26.2886C28.1209 23.4521 34.6683 22.0453 38.9529 21.2592C39.8152 21.101 40.0467 20.1073 39.2544 19.7333C35.3054 17.8688 27.2363 16.475 18.2298 20.0998C9.021 23.8059 5.52543 31.197 4.95738 35.0174C4.84523 35.7717 5.63454 36.1456 6.24366 35.6841C6.55543 35.4479 6.88233 35.1964 7.22657 34.9316Z" fill="#312E81"/>
<path d="M139.475 9.26953C139.404 9.12891 139.369 8.97656 139.369 8.8125C139.369 8.63672 139.475 8.42578 139.686 8.17969C139.908 7.92187 140.219 7.79297 140.617 7.79297H144.467C145.381 7.79297 146.078 8.34961 146.559 9.46289L153.361 24.6152L160.164 9.46289C160.645 8.36133 161.342 7.80469 162.256 7.79297H166.105C166.516 7.79297 166.826 7.92187 167.037 8.17969C167.248 8.42578 167.354 8.63672 167.354 8.8125C167.354 8.97656 167.324 9.12891 167.266 9.26953L157.141 31.207C156.59 32.4023 155.752 33 154.627 33H152.096C150.971 33 150.133 32.4023 149.582 31.207L139.475 9.26953ZM169.885 10.0605V9.46289C169.885 8.8418 170.061 8.34961 170.412 7.98633C170.775 7.62305 171.273 7.44141 171.906 7.44141H174.086C174.707 7.44141 175.199 7.62305 175.562 7.98633C175.926 8.33789 176.107 8.83008 176.107 9.46289V10.0605C176.107 10.6816 175.926 11.1738 175.562 11.5371C175.211 11.9004 174.719 12.082 174.086 12.082H171.906C171.285 12.082 170.793 11.9004 170.43 11.5371C170.066 11.1738 169.885 10.6816 169.885 10.0605ZM169.955 31.9277V15.2461C169.955 14.9297 170.055 14.6719 170.254 14.4727C170.465 14.2734 170.723 14.1738 171.027 14.1738H174.965C175.281 14.1738 175.539 14.2793 175.738 14.4902C175.938 14.6895 176.037 14.9414 176.037 15.2461V31.9277C176.037 32.2441 175.932 32.502 175.721 32.7012C175.521 32.9004 175.27 33 174.965 33H171.027C170.711 33 170.453 32.9004 170.254 32.7012C170.055 32.502 169.955 32.2441 169.955 31.9277ZM193.756 18.1992L191.049 18.0938C189.467 18.0938 187.955 18.9609 186.514 20.6953V31.9277C186.514 32.2441 186.408 32.502 186.197 32.7012C185.998 32.9004 185.746 33 185.441 33H181.504C181.188 33 180.93 32.9004 180.73 32.7012C180.531 32.502 180.432 32.2441 180.432 31.9277V14.8242C180.432 14.5078 180.531 14.25 180.73 14.0508C180.941 13.8398 181.199 13.7344 181.504 13.7344H185.441C185.758 13.7344 186.016 13.8398 186.215 14.0508C186.414 14.25 186.514 14.5078 186.514 14.8242V15.9316C187.709 15.0645 188.857 14.4258 189.959 14.0156C191.072 13.5938 192.525 13.3828 194.318 13.3828C194.635 13.3828 194.893 13.4883 195.092 13.6992C195.303 13.8984 195.408 14.1504 195.408 14.4551V17.127C195.408 17.4434 195.303 17.7012 195.092 17.9004C194.893 18.0996 194.635 18.1992 194.318 18.1992H193.756ZM207.115 29.1855L209.523 28.9746H210.174C210.49 28.9746 210.748 29.0742 210.947 29.2734C211.158 29.4727 211.264 29.7305 211.264 30.0469V31.9277C211.264 32.1855 211.158 32.4199 210.947 32.6309C210.748 32.8301 210.49 32.9531 210.174 33C208.979 33.2344 207.42 33.3516 205.498 33.3516C200.459 33.3516 197.939 30.7148 197.939 25.4414V8.88281C197.939 8.56641 198.039 8.30859 198.238 8.10938C198.449 7.89844 198.707 7.79297 199.012 7.79297H202.949C203.254 7.79297 203.506 7.89844 203.705 8.10938C203.916 8.30859 204.021 8.56641 204.021 8.88281V14.7539H208.926C209.23 14.7539 209.482 14.8535 209.682 15.0527C209.893 15.252 209.998 15.5098 209.998 15.8262V17.918C209.998 18.2344 209.893 18.4922 209.682 18.6914C209.482 18.8906 209.23 18.9902 208.926 18.9902H204.021V25.4414C204.021 26.6367 204.303 27.5625 204.865 28.2188C205.428 28.8633 206.178 29.1855 207.115 29.1855ZM213.971 24.8965V14.8242C213.971 14.5078 214.07 14.25 214.27 14.0508C214.48 13.8398 214.738 13.7344 215.043 13.7344H218.98C219.285 13.7344 219.537 13.8398 219.736 14.0508C219.947 14.25 220.053 14.5078 220.053 14.8242V24.8965C220.053 27.709 221.166 29.1152 223.393 29.1152C224.857 29.1152 226.434 28.2715 228.121 26.584V14.8242C228.121 14.5078 228.221 14.25 228.42 14.0508C228.631 13.8398 228.889 13.7344 229.193 13.7344H233.113C233.43 13.7344 233.688 13.8398 233.887 14.0508C234.098 14.25 234.203 14.5078 234.203 14.8242V31.9277C234.203 32.2324 234.098 32.4902 233.887 32.7012C233.688 32.9004 233.43 33 233.113 33H229.193C228.889 33 228.631 32.9004 228.42 32.7012C228.221 32.4902 228.121 32.2324 228.121 31.9277V30.8027C226.105 32.502 223.955 33.3516 221.67 33.3516C219.396 33.3516 217.545 32.6602 216.115 31.2773C214.686 29.8828 213.971 27.7559 213.971 24.8965ZM239.775 31.7344C238.229 30.6562 237.455 29.1328 237.455 27.1641C237.455 25.1953 238.229 23.6836 239.775 22.6289C241.334 21.5742 243.338 21.0469 245.787 21.0469H251.605C251.605 19.6758 251.318 18.7207 250.744 18.1816C250.17 17.6426 249.162 17.373 247.721 17.373C246.291 17.373 245.283 17.7305 244.697 18.4453C244.123 19.1484 243.414 19.5 242.57 19.5H239.951C239.635 19.5 239.371 19.4004 239.16 19.2012C238.961 18.9902 238.861 18.7324 238.861 18.4277C238.861 15.0645 242.055 13.3828 248.441 13.3828C251.23 13.3828 253.469 14.0098 255.156 15.2637C256.844 16.5059 257.688 18.4336 257.688 21.0469V31.9277C257.688 32.2441 257.588 32.502 257.389 32.7012C257.189 32.9004 256.932 33 256.615 33H253.223C252.906 33 252.648 32.9004 252.449 32.7012C252.25 32.4902 252.15 32.2324 252.15 31.9277V31.3828C250.299 32.707 248.16 33.3633 245.734 33.3516C243.32 33.3516 241.334 32.8125 239.775 31.7344ZM246.209 25.0371C245.389 25.0371 244.738 25.2363 244.258 25.6348C243.789 26.0332 243.555 26.5488 243.555 27.1816C243.555 27.8145 243.801 28.3359 244.293 28.7461C244.785 29.1562 245.482 29.3613 246.385 29.3613C248.189 29.3613 249.93 28.834 251.605 27.7793V25.0371H246.209ZM262.029 31.9277V8.88281C262.029 8.56641 262.129 8.30859 262.328 8.10938C262.539 7.89844 262.797 7.79297 263.102 7.79297H267.039C267.344 7.79297 267.596 7.89844 267.795 8.10938C268.006 8.30859 268.111 8.56641 268.111 8.88281V31.9277C268.111 32.2324 268.006 32.4902 267.795 32.7012C267.596 32.9004 267.344 33 267.039 33H263.102C262.797 33 262.539 32.9004 262.328 32.7012C262.129 32.4902 262.029 32.2324 262.029 31.9277ZM141.514 72.3477V50.4629C141.514 50.0059 141.678 49.6133 142.006 49.2852C142.334 48.957 142.738 48.793 143.219 48.793H146.488C146.945 48.793 147.332 48.957 147.648 49.2852C147.977 49.6133 148.141 50.0059 148.141 50.4629V58.373H160.234V50.4629C160.234 50.0059 160.398 49.6133 160.727 49.2852C161.055 48.957 161.447 48.793 161.904 48.793H165.174C165.654 48.793 166.053 48.957 166.369 49.2852C166.697 49.6133 166.861 50.0059 166.861 50.4629V72.3477C166.861 72.8047 166.691 73.1973 166.352 73.5254C166.023 73.8418 165.631 74 165.174 74H161.904C161.447 74 161.055 73.8477 160.727 73.543C160.398 73.2266 160.234 72.8398 160.234 72.3828V63.3477H148.141V72.3828C148.141 72.8398 147.977 73.2266 147.648 73.543C147.332 73.8477 146.945 74 146.488 74H143.219C142.762 74 142.363 73.8418 142.023 73.5254C141.684 73.1973 141.514 72.8047 141.514 72.3477ZM173.225 71.8203C171.396 70.1328 170.482 67.6484 170.482 64.3672C170.482 61.0742 171.396 58.5898 173.225 56.9141C175.053 55.2266 177.678 54.3828 181.1 54.3828C184.533 54.3828 187.164 55.2266 188.992 56.9141C190.82 58.5898 191.734 61.0742 191.734 64.3672C191.734 67.6484 190.82 70.1328 188.992 71.8203C187.164 73.5078 184.533 74.3516 181.1 74.3516C177.678 74.3516 175.053 73.5078 173.225 71.8203ZM177.672 59.7969C176.945 60.7461 176.582 62.2637 176.582 64.3496C176.582 66.4355 176.945 67.959 177.672 68.9199C178.398 69.8809 179.541 70.3613 181.1 70.3613C182.67 70.3613 183.818 69.8809 184.545 68.9199C185.283 67.959 185.652 66.4355 185.652 64.3496C185.652 62.2637 185.283 60.7461 184.545 59.7969C183.818 58.8477 182.67 58.373 181.1 58.373C179.541 58.373 178.398 58.8477 177.672 59.7969ZM193.896 60.0605C193.896 56.2754 196.949 54.3828 203.055 54.3828C209.477 54.3828 212.688 56.0645 212.688 59.4277C212.688 59.7324 212.588 59.9902 212.389 60.2012C212.189 60.4004 211.932 60.5 211.615 60.5H208.996C208.152 60.5 207.443 60.1484 206.869 59.4453C206.295 58.7305 205.164 58.373 203.477 58.373C201.156 58.373 199.996 58.9355 199.996 60.0605C199.996 60.5879 200.447 61.0273 201.35 61.3789C202.264 61.7305 203.371 62.041 204.672 62.3105C205.984 62.5684 207.291 62.9023 208.592 63.3125C209.893 63.7227 210.994 64.3789 211.896 65.2812C212.811 66.1719 213.268 67.3027 213.268 68.6738C213.268 72.459 210.045 74.3516 203.6 74.3516C197.154 74.3516 193.932 72.6758 193.932 69.3242C193.932 69.0078 194.031 68.75 194.23 68.5508C194.441 68.3398 194.705 68.2344 195.021 68.2344H197.641C198.484 68.2344 199.193 68.5918 199.768 69.3066C200.342 70.0098 201.473 70.3613 203.16 70.3613C205.844 70.3613 207.186 69.7988 207.186 68.6738C207.186 68.1465 206.729 67.707 205.814 67.3555C204.912 67.0039 203.805 66.6934 202.492 66.4238C201.18 66.1426 199.873 65.8027 198.572 65.4043C197.283 64.9941 196.182 64.3379 195.268 63.4355C194.354 62.5332 193.896 61.4082 193.896 60.0605ZM216.537 78.8516V55.8242C216.537 55.5078 216.637 55.25 216.836 55.0508C217.047 54.8398 217.305 54.7344 217.609 54.7344H221.002C221.307 54.7344 221.559 54.8398 221.758 55.0508C221.969 55.25 222.074 55.5078 222.074 55.8242V56.3516C223.926 55.0391 226.076 54.3828 228.525 54.3828C230.975 54.3828 233.02 55.25 234.66 56.9844C236.301 58.707 237.121 61.1797 237.121 64.4023C237.121 67.6133 236.271 70.0742 234.572 71.7852C232.873 73.4961 230.582 74.3516 227.699 74.3516C226.211 74.3516 224.518 74.0527 222.619 73.4551V78.8516C222.619 79.168 222.514 79.4258 222.303 79.625C222.104 79.8359 221.852 79.9414 221.547 79.9414H217.609C217.305 79.9414 217.047 79.8359 216.836 79.625C216.637 79.4258 216.537 79.168 216.537 78.8516ZM222.619 69.3945C224.131 69.875 225.402 70.1152 226.434 70.1152C228.039 70.1152 229.176 69.6582 229.844 68.7441C230.523 67.8301 230.863 66.3711 230.863 64.3672C230.863 62.3633 230.541 60.9102 229.896 60.0078C229.264 59.0938 228.309 58.6367 227.031 58.6367C225.766 58.6367 224.295 59.1641 222.619 60.2188V69.3945ZM240.373 51.0605V50.4629C240.373 49.8418 240.549 49.3496 240.9 48.9863C241.264 48.623 241.762 48.4414 242.395 48.4414H244.574C245.195 48.4414 245.688 48.623 246.051 48.9863C246.414 49.3379 246.596 49.8301 246.596 50.4629V51.0605C246.596 51.6816 246.414 52.1738 246.051 52.5371C245.699 52.9004 245.207 53.082 244.574 53.082H242.395C241.773 53.082 241.281 52.9004 240.918 52.5371C240.555 52.1738 240.373 51.6816 240.373 51.0605ZM240.443 72.9277V56.2461C240.443 55.9297 240.543 55.6719 240.742 55.4727C240.953 55.2734 241.211 55.1738 241.516 55.1738H245.453C245.77 55.1738 246.027 55.2793 246.227 55.4902C246.426 55.6895 246.525 55.9414 246.525 56.2461V72.9277C246.525 73.2441 246.42 73.502 246.209 73.7012C246.01 73.9004 245.758 74 245.453 74H241.516C241.199 74 240.941 73.9004 240.742 73.7012C240.543 73.502 240.443 73.2441 240.443 72.9277ZM260.096 70.1855L262.504 69.9746H263.154C263.471 69.9746 263.729 70.0742 263.928 70.2734C264.139 70.4727 264.244 70.7305 264.244 71.0469V72.9277C264.244 73.1855 264.139 73.4199 263.928 73.6309C263.729 73.8301 263.471 73.9531 263.154 74C261.959 74.2344 260.4 74.3516 258.479 74.3516C253.439 74.3516 250.92 71.7148 250.92 66.4414V49.8828C250.92 49.5664 251.02 49.3086 251.219 49.1094C251.43 48.8984 251.688 48.793 251.992 48.793H255.93C256.234 48.793 256.486 48.8984 256.686 49.1094C256.896 49.3086 257.002 49.5664 257.002 49.8828V55.7539H261.906C262.211 55.7539 262.463 55.8535 262.662 56.0527C262.873 56.252 262.979 56.5098 262.979 56.8262V58.918C262.979 59.2344 262.873 59.4922 262.662 59.6914C262.463 59.8906 262.211 59.9902 261.906 59.9902H257.002V66.4414C257.002 67.6367 257.283 68.5625 257.846 69.2188C258.408 69.8633 259.158 70.1855 260.096 70.1855ZM268.182 72.7344C266.635 71.6562 265.861 70.1328 265.861 68.1641C265.861 66.1953 266.635 64.6836 268.182 63.6289C269.74 62.5742 271.744 62.0469 274.193 62.0469H280.012C280.012 60.6758 279.725 59.7207 279.15 59.1816C278.576 58.6426 277.568 58.373 276.127 58.373C274.697 58.373 273.689 58.7305 273.104 59.4453C272.529 60.1484 271.82 60.5 270.977 60.5H268.357C268.041 60.5 267.777 60.4004 267.566 60.2012C267.367 59.9902 267.268 59.7324 267.268 59.4277C267.268 56.0645 270.461 54.3828 276.848 54.3828C279.637 54.3828 281.875 55.0098 283.562 56.2637C285.25 57.5059 286.094 59.4336 286.094 62.0469V72.9277C286.094 73.2441 285.994 73.502 285.795 73.7012C285.596 73.9004 285.338 74 285.021 74H281.629C281.312 74 281.055 73.9004 280.855 73.7012C280.656 73.4902 280.557 73.2324 280.557 72.9277V72.3828C278.705 73.707 276.566 74.3633 274.141 74.3516C271.727 74.3516 269.74 73.8125 268.182 72.7344ZM274.615 66.0371C273.795 66.0371 273.145 66.2363 272.664 66.6348C272.195 67.0332 271.961 67.5488 271.961 68.1816C271.961 68.8145 272.207 69.3359 272.699 69.7461C273.191 70.1562 273.889 70.3613 274.791 70.3613C276.596 70.3613 278.336 69.834 280.012 68.7793V66.0371H274.615ZM290.436 72.9277V49.8828C290.436 49.5664 290.535 49.3086 290.734 49.1094C290.945 48.8984 291.203 48.793 291.508 48.793H295.445C295.75 48.793 296.002 48.8984 296.201 49.1094C296.412 49.3086 296.518 49.5664 296.518 49.8828V72.9277C296.518 73.2324 296.412 73.4902 296.201 73.7012C296.002 73.9004 295.75 74 295.445 74H291.508C291.203 74 290.945 73.9004 290.734 73.7012C290.535 73.4902 290.436 73.2324 290.436 72.9277ZM299.752 60.0605C299.752 56.2754 302.805 54.3828 308.91 54.3828C315.332 54.3828 318.543 56.0645 318.543 59.4277C318.543 59.7324 318.443 59.9902 318.244 60.2012C318.045 60.4004 317.787 60.5 317.471 60.5H314.852C314.008 60.5 313.299 60.1484 312.725 59.4453C312.15 58.7305 311.02 58.373 309.332 58.373C307.012 58.373 305.852 58.9355 305.852 60.0605C305.852 60.5879 306.303 61.0273 307.205 61.3789C308.119 61.7305 309.227 62.041 310.527 62.3105C311.84 62.5684 313.146 62.9023 314.447 63.3125C315.748 63.7227 316.85 64.3789 317.752 65.2812C318.666 66.1719 319.123 67.3027 319.123 68.6738C319.123 72.459 315.9 74.3516 309.455 74.3516C303.01 74.3516 299.787 72.6758 299.787 69.3242C299.787 69.0078 299.887 68.75 300.086 68.5508C300.297 68.3398 300.561 68.2344 300.877 68.2344H303.496C304.34 68.2344 305.049 68.5918 305.623 69.3066C306.197 70.0098 307.328 70.3613 309.016 70.3613C311.699 70.3613 313.041 69.7988 313.041 68.6738C313.041 68.1465 312.584 67.707 311.67 67.3555C310.768 67.0039 309.66 66.6934 308.348 66.4238C307.035 66.1426 305.729 65.8027 304.428 65.4043C303.139 64.9941 302.037 64.3379 301.123 63.4355C300.209 62.5332 299.752 61.4082 299.752 60.0605ZM139.439 113.383L143.852 96.6484C145.047 92.0898 148.938 89.8047 155.523 89.793H164.998C165.432 89.793 165.789 89.957 166.07 90.2852C166.363 90.6133 166.51 90.9941 166.51 91.4277V113.383C166.51 113.84 166.346 114.227 166.018 114.543C165.689 114.848 165.297 115 164.84 115H161.535C161.055 115 160.656 114.848 160.34 114.543C160.035 114.227 159.883 113.828 159.883 113.348V108.918H147.385L146.207 113.348C146.09 113.828 145.826 114.227 145.416 114.543C145.006 114.848 144.572 115 144.115 115H140.652C140.195 115 139.867 114.871 139.668 114.613C139.469 114.344 139.369 114.109 139.369 113.91C139.381 113.711 139.404 113.535 139.439 113.383ZM148.686 103.943H159.883V94.7676H154.873C153.748 94.7676 152.764 95.0898 151.92 95.7344C151.088 96.3672 150.525 97.2227 150.232 98.3008L148.686 103.943ZM185.301 93.9062L182.875 93.6074C180.543 93.6074 179.025 93.9238 178.322 94.5566C177.619 95.1777 177.268 96.4727 177.268 98.4414V98.7227H183.631C183.947 98.7227 184.205 98.8281 184.404 99.0391C184.615 99.2383 184.721 99.4961 184.721 99.8125V101.904C184.721 102.221 184.615 102.479 184.404 102.678C184.205 102.877 183.947 102.977 183.631 102.977H177.268V113.928C177.268 114.244 177.162 114.502 176.951 114.701C176.752 114.9 176.5 115 176.195 115H172.258C171.941 115 171.684 114.9 171.484 114.701C171.285 114.502 171.186 114.244 171.186 113.928V98.4414C171.186 95.1719 171.93 92.8574 173.418 91.498C174.906 90.127 177.52 89.4414 181.258 89.4414C183.18 89.4414 184.521 89.5117 185.283 89.6523C186.045 89.793 186.525 89.9688 186.725 90.1797C186.924 90.3789 187.023 90.6133 187.023 90.8828V92.8164C187.023 93.1328 186.918 93.3965 186.707 93.6074C186.508 93.8066 186.256 93.9062 185.951 93.9062H185.301ZM201.807 100.199L199.1 100.094C197.518 100.094 196.006 100.961 194.564 102.695V113.928C194.564 114.244 194.459 114.502 194.248 114.701C194.049 114.9 193.797 115 193.492 115H189.555C189.238 115 188.98 114.9 188.781 114.701C188.582 114.502 188.482 114.244 188.482 113.928V96.8242C188.482 96.5078 188.582 96.25 188.781 96.0508C188.992 95.8398 189.25 95.7344 189.555 95.7344H193.492C193.809 95.7344 194.066 95.8398 194.266 96.0508C194.465 96.25 194.564 96.5078 194.564 96.8242V97.9316C195.76 97.0645 196.908 96.4258 198.01 96.0156C199.123 95.5938 200.576 95.3828 202.369 95.3828C202.686 95.3828 202.943 95.4883 203.143 95.6992C203.354 95.8984 203.459 96.1504 203.459 96.4551V99.127C203.459 99.4434 203.354 99.7012 203.143 99.9004C202.943 100.1 202.686 100.199 202.369 100.199H201.807ZM205.99 92.0605V91.4629C205.99 90.8418 206.166 90.3496 206.518 89.9863C206.881 89.623 207.379 89.4414 208.012 89.4414H210.191C210.812 89.4414 211.305 89.623 211.668 89.9863C212.031 90.3379 212.213 90.8301 212.213 91.4629V92.0605C212.213 92.6816 212.031 93.1738 211.668 93.5371C211.316 93.9004 210.824 94.082 210.191 94.082H208.012C207.391 94.082 206.898 93.9004 206.535 93.5371C206.172 93.1738 205.99 92.6816 205.99 92.0605ZM206.061 113.928V97.2461C206.061 96.9297 206.16 96.6719 206.359 96.4727C206.57 96.2734 206.828 96.1738 207.133 96.1738H211.07C211.387 96.1738 211.645 96.2793 211.844 96.4902C212.043 96.6895 212.143 96.9414 212.143 97.2461V113.928C212.143 114.244 212.037 114.502 211.826 114.701C211.627 114.9 211.375 115 211.07 115H207.133C206.816 115 206.559 114.9 206.359 114.701C206.16 114.502 206.061 114.244 206.061 113.928ZM225.854 115.352C222.572 115.352 220.018 114.508 218.189 112.82C216.361 111.133 215.447 108.654 215.447 105.385C215.447 102.104 216.355 99.6191 218.172 97.9316C219.988 96.2324 222.514 95.3828 225.748 95.3828C228.994 95.3828 231.484 95.8984 233.219 96.9297C234.965 97.9609 235.838 99.4844 235.838 101.5C235.838 101.816 235.732 102.074 235.521 102.273C235.322 102.473 235.064 102.572 234.748 102.572H232.129C231.332 102.572 230.658 102.145 230.107 101.289C229.416 100.188 228.191 99.6367 226.434 99.6367C224.688 99.6367 223.463 100.088 222.76 100.99C222.068 101.881 221.723 103.34 221.723 105.367C221.723 107.395 222.08 108.859 222.795 109.762C223.521 110.664 224.775 111.115 226.557 111.115C228.35 111.115 229.592 110.564 230.283 109.463C230.834 108.596 231.508 108.162 232.305 108.162H234.924C235.24 108.162 235.498 108.268 235.697 108.479C235.908 108.678 236.014 108.93 236.014 109.234C236.014 111.25 235.141 112.773 233.395 113.805C231.66 114.836 229.146 115.352 225.854 115.352ZM240.127 113.734C238.58 112.656 237.807 111.133 237.807 109.164C237.807 107.195 238.58 105.684 240.127 104.629C241.686 103.574 243.689 103.047 246.139 103.047H251.957C251.957 101.676 251.67 100.721 251.096 100.182C250.521 99.6426 249.514 99.373 248.072 99.373C246.643 99.373 245.635 99.7305 245.049 100.445C244.475 101.148 243.766 101.5 242.922 101.5H240.303C239.986 101.5 239.723 101.4 239.512 101.201C239.312 100.99 239.213 100.732 239.213 100.428C239.213 97.0645 242.406 95.3828 248.793 95.3828C251.582 95.3828 253.82 96.0098 255.508 97.2637C257.195 98.5059 258.039 100.434 258.039 103.047V113.928C258.039 114.244 257.939 114.502 257.74 114.701C257.541 114.9 257.283 115 256.967 115H253.574C253.258 115 253 114.9 252.801 114.701C252.602 114.49 252.502 114.232 252.502 113.928V113.383C250.65 114.707 248.512 115.363 246.086 115.352C243.672 115.352 241.686 114.812 240.127 113.734ZM246.561 107.037C245.74 107.037 245.09 107.236 244.609 107.635C244.141 108.033 243.906 108.549 243.906 109.182C243.906 109.814 244.152 110.336 244.645 110.746C245.137 111.156 245.834 111.361 246.736 111.361C248.541 111.361 250.281 110.834 251.957 109.779V107.037H246.561Z" fill="#312E81"/>
</svg>
