<svg width="512" height="512" viewBox="0 0 512 512" fill="none" xmlns="http://www.w3.org/2000/svg">
<rect width="512" height="512" fill="#312E81"/>
<path fill-rule="evenodd" clip-rule="evenodd" d="M252.118 294.887C222.978 294.887 188.205 304.141 167.843 316.817C161.124 321 148.982 311.454 143.254 304.141C137.526 296.827 132.178 294.41 135.204 288.771C138.231 283.132 192.176 243.377 252.118 243.377C287.647 243.377 327.159 256.568 346.503 265.218C363.91 273.001 365.366 277.454 371.077 281.828C376.788 286.201 374.13 288.771 365.366 299.322C356.601 309.874 341.565 319.042 339.608 316.817C318.985 301.724 283.702 294.887 252.118 294.887Z" fill="white"/>
<path fill-rule="evenodd" clip-rule="evenodd" d="M258.388 350.391C242.102 350.391 231.588 351.607 220.335 358.994C216.543 361.483 207.188 372.115 198.423 363.367C192.695 356.054 182.306 351.57 189.659 345.873C200.801 337.24 210.925 324.004 252.261 324.004C278.499 324.004 298.948 326.856 320.37 341.499C324.753 346.017 327.808 347.375 320.37 354.62C311.391 363.367 305.414 365.126 302.841 363.367C289.312 354.12 274.675 350.391 258.388 350.391Z" fill="white"/>
<path d="M279.765 401.139C265.313 414.614 266.851 414.614 255.378 414.614C243.905 414.614 244.502 410.164 234.604 401.139C223.765 391.258 223.765 391.258 223.765 386.766C227.563 381.85 237.313 373.291 255.378 373.291C275.249 373.291 284.999 381.85 288.797 386.766C291.488 390.249 288.797 392.717 279.765 401.139Z" fill="white"/>
<path fill-rule="evenodd" clip-rule="evenodd" d="M250.756 221.973C203.252 221.972 146.117 247.83 124.587 264.511C109.003 276.586 69.3041 230.851 80.764 221.973C104.974 203.215 179.66 157.758 256.884 157.758C300.948 157.758 400.001 188.379 431.523 221.973C437.684 228.538 404.754 267.328 392.082 261.336C355.868 236.583 294.809 221.973 250.756 221.973Z" fill="white"/>
<path fill-rule="evenodd" clip-rule="evenodd" d="M290.136 127.978C291.669 118.833 300.364 112.655 309.559 114.18C357.046 122.051 400.973 139.289 442.779 171.568C450.143 177.253 451.478 187.798 445.762 195.122C440.046 202.445 429.443 203.773 422.08 198.088C385.124 169.554 346.537 154.345 304.01 147.296C294.815 145.772 288.604 137.123 290.136 127.978Z" fill="white"/>
<path d="M288.031 124.579C298.533 115.627 303.659 115.253 303.971 115.253L308.66 146.961L277.717 143.231C276.154 141.988 277.529 133.532 288.031 124.579Z" fill="white"/>
<path fill-rule="evenodd" clip-rule="evenodd" d="M287.421 123.873C298.004 114.851 312.877 105.352 303.971 114.323C304.436 114.323 304.831 114.662 304.899 115.12L309.587 146.828C309.629 147.115 309.535 147.406 309.331 147.614C309.126 147.823 308.837 147.924 308.546 147.889L277.604 144.159C277.431 144.138 277.267 144.07 277.131 143.961C276.713 143.629 276.488 143.139 276.37 142.666C276.249 142.179 276.216 141.61 276.256 140.992C276.338 139.753 276.727 138.195 277.488 136.431C279.013 132.893 282.077 128.429 287.421 123.873ZM303.182 116.327C301.415 116.75 296.657 118.456 288.641 125.289C283.483 129.687 280.608 133.927 279.211 137.166C278.511 138.79 278.192 140.138 278.128 141.114C278.095 141.604 278.129 141.97 278.191 142.218C278.204 142.273 278.218 142.318 278.232 142.356L307.553 145.891L303.182 116.327Z" fill="white"/>
<path d="M448.745 187.61C448.745 173.263 442.148 173.833 441.923 173.617L414.522 191.312L441.254 211.881C443.247 212.067 448.745 202.915 448.745 187.61Z" fill="white"/>
<path fill-rule="evenodd" clip-rule="evenodd" d="M442.253 172.74C442.253 172.74 442.285 172.745 442.306 172.748C442.338 172.753 442.38 172.76 442.438 172.769C442.662 172.806 442.985 172.866 443.367 172.984C444.139 173.223 445.506 165.617 446.469 166.581C448.395 168.507 450.852 170.955 449.687 187.608C449.687 195.368 448.294 201.597 446.626 205.889C445.794 208.03 444.884 209.715 444.024 210.872C443.596 211.447 443.16 211.922 442.727 212.255C442.322 212.566 441.778 212.864 441.171 212.808C440.995 212.791 440.826 212.725 440.685 212.617L413.953 192.047C413.713 191.862 413.578 191.573 413.59 191.271C413.603 190.969 413.762 190.692 414.017 190.528L441.418 172.833C441.672 172.668 441.982 172.64 442.253 172.74ZM444.758 175.969C446.187 177.399 447.812 180.552 447.812 187.608C447.812 195.152 446.456 201.152 444.877 205.216C444.086 207.253 443.248 208.778 442.516 209.763C442.148 210.258 441.828 210.588 441.579 210.78C441.537 210.812 441.5 210.839 441.467 210.86L416.146 191.376L442.114 174.607L442.133 174.61C442.314 174.639 442.543 174.682 442.81 174.765C443.339 174.929 444.044 175.255 444.758 175.969Z" fill="white"/>
<path d="M385.545 128.874C413.888 141.09 429.875 154.464 440.755 162.691C442.951 164.352 445.798 163.006 445.393 160.291C443.345 146.54 430.738 119.938 397.528 106.599C365.047 93.5522 335.947 98.569 321.706 105.279C318.848 106.626 319.683 110.202 322.793 110.772C338.245 113.601 361.857 118.664 385.545 128.874Z" fill="white"/>
<path fill-rule="evenodd" clip-rule="evenodd" d="M435.585 170.955C436.828 171.908 440.312 182.107 439.967 175.328C441.583 176.55 447.096 184.893 448.729 184.076C450.852 179.702 449.046 164.808 448.73 162.691C446.595 148.356 432.123 118.482 398.233 104.869C365.251 91.6218 335.606 96.6678 320.906 103.594C317.26 105.349 304.113 109.723 295.348 118.47C295.759 120.409 319.474 118.061 321.709 118.47C337.112 121.291 359.501 125.839 382.995 135.965C408.187 146.823 424.827 162.696 435.585 170.955ZM437.213 159.982C426.441 151.713 410.961 139.828 385.548 128.874C361.86 118.665 338.248 113.602 322.796 110.772C319.686 110.203 318.851 106.626 321.709 105.28C335.95 98.5693 365.05 93.5525 397.531 106.599C430.741 119.938 443.348 146.541 445.396 160.291C445.801 163.006 442.954 164.352 440.757 162.691C439.633 161.841 438.454 160.936 437.213 159.982Z" fill="white"/>
<path fill-rule="evenodd" clip-rule="evenodd" d="M221.68 127.978C220.147 118.833 211.451 112.655 202.257 114.179C154.769 122.051 110.843 139.288 69.0362 171.567C61.6731 177.253 60.3378 187.798 66.0538 195.121C71.7697 202.445 82.3724 203.773 89.7355 198.088C126.692 169.554 165.279 154.345 207.806 147.296C217.001 145.771 223.212 137.123 221.68 127.978Z" fill="white"/>
<path d="M223.784 124.579C213.283 115.626 208.157 115.253 207.844 115.253L203.156 146.961L234.099 143.231C235.661 141.987 234.286 133.532 223.784 124.579Z" fill="white"/>
<path fill-rule="evenodd" clip-rule="evenodd" d="M224.395 123.872C213.812 114.85 208.475 114.321 207.845 114.321C207.38 114.321 206.985 114.661 206.917 115.118L202.229 146.826C202.186 147.114 202.281 147.405 202.485 147.613C202.689 147.821 202.979 147.923 203.269 147.888L234.212 144.157C234.385 144.137 234.549 144.068 234.685 143.96C235.103 143.627 235.328 143.138 235.445 142.664C235.567 142.177 235.6 141.609 235.559 140.99C235.477 139.752 235.089 138.193 234.328 136.429C232.802 132.892 229.739 128.428 224.395 123.872ZM208.634 116.325C210.401 116.749 215.159 118.454 223.175 125.288C228.332 129.685 231.207 133.925 232.604 137.164C233.305 138.789 233.623 140.137 233.688 141.113C233.72 141.602 233.687 141.968 233.625 142.216C233.611 142.271 233.597 142.317 233.584 142.354L204.263 145.889L208.634 116.325Z" fill="white"/>
<path d="M63.0694 187.61C63.0694 173.262 69.6662 173.833 69.8909 173.617L97.2919 191.312L70.56 211.881C68.5674 212.067 63.0694 202.914 63.0694 187.61Z" fill="white"/>
<path fill-rule="evenodd" clip-rule="evenodd" d="M69.5659 172.745C69.5506 172.747 69.5337 172.75 69.5135 172.753C69.4809 172.758 69.4394 172.765 69.3807 172.774C69.1575 172.811 68.8345 172.871 68.4517 172.989C67.6803 173.228 66.6942 173.696 65.7309 174.659C63.8051 176.586 62.1317 180.321 62.1317 187.613C62.1317 195.373 63.5251 201.602 65.1929 205.894C66.0251 208.035 66.9356 209.72 67.7948 210.877C68.2226 211.452 68.6593 211.927 69.0923 212.26C69.4968 212.571 70.0413 212.869 70.6476 212.813C70.8245 212.796 70.9931 212.73 71.1337 212.622L97.8656 192.052C98.1059 191.867 98.2412 191.578 98.2287 191.276C98.2161 190.974 98.0573 190.697 97.8024 190.533L70.4015 172.838C70.1471 172.673 69.8369 172.645 69.5659 172.745ZM67.0607 175.974C65.632 177.404 64.007 180.557 64.007 187.613C64.007 195.157 65.3627 201.157 66.9421 205.221C67.7334 207.258 68.5711 208.783 69.3031 209.768C69.671 210.263 69.9907 210.593 70.2397 210.785C70.2821 210.817 70.3195 210.844 70.352 210.865L95.673 191.381L69.7049 174.612C69.6983 174.613 69.6918 174.614 69.6857 174.615C69.5052 174.644 69.276 174.687 69.0086 174.77C68.4799 174.934 67.7748 175.26 67.0607 175.974Z" fill="white"/>
<path d="M128.819 135.965C100.477 148.181 73.9642 180.223 63.0845 188.449C60.8878 190.11 66.014 163.005 66.4185 160.291C68.4671 146.54 81.0734 119.938 114.284 106.598C146.765 93.5518 175.864 98.5686 190.106 105.279C192.963 106.626 215.193 117.901 212.084 118.471C196.632 121.3 152.507 125.756 128.819 135.965Z" fill="white"/>
<path fill-rule="evenodd" clip-rule="evenodd" d="M74.5199 179.208C73.2557 180.423 72.0535 181.578 70.9048 182.665C69.2614 184.221 64.7461 189.49 63.0845 188.449C61.3643 187.372 62.155 180.415 62.4759 177.718C64.3632 145.062 78.5339 124.47 113.012 107.133C146.566 90.2604 180.566 98.7498 199.604 107.696C202.624 109.115 220.848 118.429 220.848 122.803C220.43 125.272 201.21 122.324 198.936 122.845C183.266 126.438 150.577 126.988 126.676 139.885C101.047 153.714 85.4644 168.689 74.5199 179.208ZM73.3564 177.325C84.3145 166.792 100.063 151.656 125.917 137.705C150.016 124.702 191.981 122.033 207.701 118.429C210.864 117.704 193.771 109.37 190.864 107.655C176.375 99.1088 146.77 92.7194 113.726 109.335C79.94 126.324 65.5408 150.14 65.0309 177.718C64.6194 181.176 67.5154 182.89 69.7502 180.774C70.894 179.692 72.0934 178.539 73.3564 177.325Z" fill="white"/>
</svg>
